<svg width="32" height="32" viewBox="0 0 32 32" fill="none" xmlns="http://www.w3.org/2000/svg">
<path d="M4.666 21.348C4.8446 21.5225 5.08435 21.6201 5.334 21.6201C5.58366 21.6201 5.82341 21.5225 6.002 21.348L16 11.602L25.996 21.348C26.1746 21.5225 26.4143 21.6201 26.664 21.6201C26.9136 21.6201 27.1534 21.5225 27.332 21.348C27.4191 21.2632 27.4883 21.1618 27.5356 21.0499C27.5828 20.9379 27.6072 20.8176 27.6072 20.696C27.6072 20.5745 27.5828 20.4541 27.5356 20.3422C27.4883 20.2302 27.4191 20.1288 27.332 20.044L16.698 9.68001C16.5112 9.49798 16.2608 9.39611 16 9.39611C15.7392 9.39611 15.4887 9.49798 15.302 9.68001L4.668 20.044C4.58092 20.1288 4.5117 20.2302 4.46443 20.3422C4.41717 20.4541 4.39282 20.5745 4.39282 20.696C4.39282 20.8176 4.41717 20.9379 4.46444 21.0499C4.5117 21.1618 4.58092 21.2632 4.668 21.348L4.666 21.348Z" fill="#F3F3F3"/>
</svg>
