<svg width="32" height="32" viewBox="0 0 32 32" fill="none" xmlns="http://www.w3.org/2000/svg">
<path d="M27.334 10.652C27.1554 10.4776 26.9157 10.3799 26.666 10.3799C26.4163 10.3799 26.1766 10.4776 25.998 10.652L16 20.398L6.00401 10.652C5.82542 10.4776 5.58567 10.3799 5.33602 10.3799C5.08636 10.3799 4.84661 10.4776 4.66802 10.652C4.58093 10.7368 4.51171 10.8382 4.46445 10.9502C4.41719 11.0621 4.39284 11.1825 4.39284 11.304C4.39284 11.4255 4.41719 11.5459 4.46445 11.6578C4.51171 11.7698 4.58093 11.8712 4.66802 11.956L15.302 22.32C15.4888 22.502 15.7392 22.6039 16 22.6039C16.2608 22.6039 16.5113 22.502 16.698 22.32L27.332 11.956C27.4191 11.8712 27.4883 11.7698 27.5356 11.6578C27.5828 11.5459 27.6072 11.4255 27.6072 11.304C27.6072 11.1825 27.5828 11.0621 27.5356 10.9502C27.4883 10.8382 27.4191 10.7368 27.332 10.652L27.334 10.652Z" fill="#F3F3F3"/>
</svg>
