<svg width="16" height="16" viewBox="0 0 16 16" fill="none" xmlns="http://www.w3.org/2000/svg">
<path d="M2.14121 10.8664C2.23353 10.9521 2.35746 11 2.48652 11C2.61557 11 2.7395 10.9521 2.83182 10.8664L8 6.08274L13.1671 10.8664C13.2595 10.9521 13.3834 11 13.5125 11C13.6415 11 13.7654 10.9521 13.8578 10.8664C13.9028 10.8248 13.9386 10.7751 13.963 10.7201C13.9874 10.6651 14 10.6061 14 10.5464C14 10.4868 13.9874 10.4277 13.963 10.3727C13.9386 10.3178 13.9028 10.268 13.8578 10.2264L8.36081 5.13935C8.26428 5.05 8.13481 5 8 5C7.8652 5 7.73572 5.05 7.63919 5.13935L2.14225 10.2264C2.09723 10.268 2.06145 10.3178 2.03702 10.3727C2.01259 10.4277 2 10.4868 2 10.5464C2 10.6061 2.01259 10.6651 2.03702 10.7201C2.06145 10.7751 2.09723 10.8248 2.14225 10.8664L2.14121 10.8664Z" fill="#F3F3F3"/>
</svg>
