<svg width="32" height="32" viewBox="0 0 32 32" fill="none" xmlns="http://www.w3.org/2000/svg">
<path d="M21.348 27.334C21.5225 27.1554 21.6201 26.9157 21.6201 26.666C21.6201 26.4163 21.5225 26.1766 21.348 25.998L11.602 16L21.348 6.00401C21.5225 5.82542 21.6201 5.58567 21.6201 5.33602C21.6201 5.08636 21.5225 4.84661 21.348 4.66802C21.2632 4.58093 21.1618 4.51171 21.0499 4.46445C20.9379 4.41719 20.8176 4.39284 20.696 4.39284C20.5745 4.39284 20.4541 4.41719 20.3422 4.46445C20.2302 4.51171 20.1288 4.58093 20.044 4.66802L9.68001 15.302C9.49798 15.4888 9.39611 15.7392 9.39611 16C9.39611 16.2608 9.49798 16.5113 9.68001 16.698L20.044 27.332C20.1288 27.4191 20.2302 27.4883 20.3422 27.5356C20.4541 27.5828 20.5745 27.6072 20.696 27.6072C20.8176 27.6072 20.9379 27.5828 21.0499 27.5356C21.1618 27.4883 21.2632 27.4191 21.348 27.332L21.348 27.334Z" fill="#F3F3F3"/>
</svg>
