<svg width="16" height="16" viewBox="0 0 16 16" fill="none" xmlns="http://www.w3.org/2000/svg">
<path d="M13.8588 5.13356C13.7665 5.04794 13.6425 5 13.5135 5C13.3844 5 13.2605 5.04794 13.1682 5.13356L8 9.91726L2.83285 5.13356C2.74053 5.04794 2.6166 5 2.48755 5C2.3585 5 2.23457 5.04794 2.14225 5.13356C2.09723 5.17518 2.06145 5.22494 2.03702 5.2799C2.01259 5.33487 2 5.39392 2 5.45359C2 5.51325 2.01259 5.5723 2.03702 5.62727C2.06145 5.68223 2.09723 5.73199 2.14225 5.77361L7.63919 10.8606C7.73572 10.95 7.86519 11 8 11C8.1348 11 8.26428 10.95 8.36081 10.8606L13.8578 5.77361C13.9028 5.73199 13.9386 5.68223 13.963 5.62727C13.9874 5.5723 14 5.51325 14 5.45359C14 5.39393 13.9874 5.33487 13.963 5.2799C13.9386 5.22494 13.9028 5.17518 13.8578 5.13356L13.8588 5.13356Z" fill="#F3F3F3"/>
</svg>
